{"title":"18+ The Model 2016 UNCENSORED Movies BRRip XviD New +Sample ☻rDX","uid":15579026,"size":739851514,"categoryP":"video","categoryS":"movies","magnet":"?xt=urn:btih:488c3b2630c40765f7e9fceec92de3e289e4fb7b&amp;dn=18%2B+The+Model+2016+UNCENSORED+Movies+BRRip+XviD+New+%2BSample+%E2%98%BBrDX&amp;tr=udp%3A%2F%2Ftracker.leechers-paradise.org%3A6969&amp;tr=udp%3A%2F%2Fzer0day.ch%3A1337&amp;tr=udp%3A%2F%2Fopen.demonii.com%3A1337&amp;tr=udp%3A%2F%2Ftracker.coppersurfer.tk%3A6969&amp;tr=udp%3A%2F%2Fexodus.desync.com%3A6969","seeders":3,"leechers":4,"uploader":"basicssom","files":2,"time":1471379433,"description":"----------------------------------------------------------------\r\n18+ The Model 2016 UNCENSORED English Movies BRRip XviD AAC New Source with Sample ☻rDX☻\r\n\r\nSCREEN SHOTS &amp; POSTER:\r\n  \nhttp://postimage.co.nr/2016/8/tv/index.htm  \nhttp://postimage.co.nr/2016/8/tv/1.html  \nhttp://postimage.co.nr/2016/8/tv/2.html  \nhttp://postimage.co.nr/2016/8/tv/3.html  \nhttp://postimage.co.nr/2016/8/tv/4.html  \nhttp://postimage.co.nr/2016/8/tv/5.html  \nhttp://postimage.co.nr/2016/8/tv/6.html  \nhttp://postimage.co.nr/2016/8/tv/7.html  \nhttp://postimage.co.nr/2016/8/tv/8.html  \nhttp://postimage.co.nr/2016/8/tv/9.html  \nhttp://postimage.co.nr/2016/8/tv/10.html\r\n\r\nFormat                                   : Matroska\r\nFormat version                           : Version 4 / Version 2\r\nFile size                                : 699 MiB\r\nDuration                                 : 1 h 48 min\r\nOverall bit rate mode                    : Constant\r\nOverall bit rate                         : 904 kb/s\r\nMovie name                               : 18+ The Model 2016 UNCENSORED English Movies BRRip XviD AAC New Source ☻rDX☻\r\nEncoded date                             : UTC 2016-08-16 18:27:52\r\nWriting application                      : mkvmerge v6.5.0 ('Isn't she lovely') built on Oct 20 2013 12:50:05\r\nWriting library                          : libebml v1.3.0 + libmatroska v1.4.1 / Lavf55.12.100\r\n\r\nVideo\r\nID                                       : 2\r\nFormat                                   : AVC\r\nFormat/Info                              : Advanced Video Codec\r\nFormat profile                           :   \r\nFormat settings, CABAC                   : Yes\r\nFormat settings, ReFrames                : 2 frames\r\nFormat settings, GOP                     : M=1, N=12\r\nCodec ID                                 : V_MPEG4/ISO/AVC\r\nDuration                                 : 1 h 48 min\r\nBit rate mode                            : Constant\r\nBit rate                                 : 457 kb/s\r\nWidth                                    : 720 pixels\r\nHeight                                   : 390 pixels\r\nDisplay aspect ratio                     : 1.85:1\r\nFrame rate mode                          : Constant\r\nFrame rate                               : 24.000 FPS\r\nColor space                              : YUV\r\nChroma subsampling                       : 4:2:0\r\nBit depth                                : 8 bits\r\nScan type                                : Progressive\r\nBits/(Pixel*Frame)                       : 0.068\r\nStream size                              : 338 MiB (48%)\r\nTitle                                    : ☻rDX☻\r\nDefault                                  : Yes\r\nForced                                   : No\r\n\r\nAudio\r\nID                                       : 1\r\nFormat                                   : AC-3\r\nFormat/Info                              : Audio Coding 3\r\nMode extension                           : CM (complete main)\r\nFormat settings, Endianness              : Big\r\nCodec ID                                 : A_AC3\r\nDuration                                 : 1 h 48 min\r\nBit rate mode                            : Constant\r\nBit rate                                 : 448 kb/s\r\nChannel(s)                               : 6 channels\r\nChannel positions                        : Front: L C R, Side: L R, LFE\r\nSampling rate                            : 48.0 kHz\r\nFrame rate                               : 31.250 FPS (1536 spf)\r\nCompression mode                         : Lossy\r\nStream size                              : 346 MiB (50%)\r\nTitle                                    : ☻rDX☻\r\nDefault                                  : Yes\r\nForced                                   : No\r\n\r\n\r\n\r\nIMDB \nhttp://www.imdb.com/title/tt4074364/","torrent":{"xt":"urn:btih:488c3b2630c40765f7e9fceec92de3e289e4fb7b","amp;dn":"18%2B+The+Model+2016+UNCENSORED+Movies+BRRip+XviD+New+%2BSample+%E2%98%BBrDX","amp;tr":["udp%3A%2F%2Ftracker.leechers-paradise.org%3A6969","udp%3A%2F%2Fzer0day.ch%3A1337","udp%3A%2F%2Fopen.demonii.com%3A1337","udp%3A%2F%2Ftracker.coppersurfer.tk%3A6969","udp%3A%2F%2Fexodus.desync.com%3A6969"],"infoHash":"488c3b2630c40765f7e9fceec92de3e289e4fb7b","infoHashBuffer":{"type":"Buffer","data":[72,140,59,38,48,196,7,101,247,233,252,238,201,45,227,226,137,228,251,123]},"announce":[],"urlList":[]}}